# xmcd
#
# Track frame offsets:
#	182
#	15477
#	27800
#	43182
#	58530
#	76772
#	90707
#	106372
#	124120
#	139595
#	156805
#	175642
#	193255
#	209527
#	225952
#	242455
#	255020
#	271170
#	290980
#	303622
#	317975
#
# Disc length: 4381 seconds
#
# Revision: 1
# Processed by: cddbd v1.5.1PL2 Copyright (c) Steve Scherf et al.
# Submitted via: audiograbber 1.83.01
#
DISCID=16111b15
DTITLE=Various Artist - Country Music Month '96
DYEAR=1996
DGENRE=Country
TTITLE0=Paul Brandt - My Heart Has A History
TTITLE1=David Ball - Hangin' In And Hangin' On
TTITLE2=Travis Tritt - More Than You'll Ever Know
TTITLE3=Chris Ward - Fall Reaching
TTITLE4=Faith Hill - I Can't Do That Anymore
TTITLE5=Jeff Foxworthy - Pure Bred Redneck
TTITLE6=Daryl Singletary - Amen Kind Of Love
TTITLE7=Brady Seals - Another You, Another Me
TTITLE8=Clay Walker - Bury The Shovel
TTITLE9=Randy Travis - King Of The Road
TTITLE10=Bill Engvall - Here's Your Sign
TTITLE11=Fath Hill - You Can't Lose Me
TTITLE12=Travis Tritt - She's Goin' Home With Me
TTITLE13=Clay Walker - Hypnitize The Moon
TTITLE14=Paul Brandt - I Do
TTITLE15=Daryl SIngletary - Too Much Fun
TTITLE16=The Sky Kings - That Just About Says It All
TTITLE17=David Ball - The Bottle That Pours The Wine
TTITLE18=Regina Regina - More Than I Wanted To Know
TTITLE19=Doug Supernaw - Not Enough Hours In The Night
TTITLE20=Jeff Foxworthy - Redneck 12 Days Of Christmas
EXTD=Promo Copy - Not For Resale
EXTT0=
EXTT1=
EXTT2=
EXTT3=
EXTT4=
EXTT5=
EXTT6=
EXTT7=
EXTT8=
EXTT9=
EXTT10=
EXTT11=
EXTT12=
EXTT13=
EXTT14=
EXTT15=
EXTT16=
EXTT17=
EXTT18=
EXTT19=
EXTT20=
PLAYORDER=
